<?xml version="1.0" encoding="UTF-8" standalone="no"?>
<!-- Created with Inkscape (http://www.inkscape.org/) -->

<svg
   xmlns:dc="http://purl.org/dc/elements/1.1/"
   xmlns:cc="http://creativecommons.org/ns#"
   xmlns:rdf="http://www.w3.org/1999/02/22-rdf-syntax-ns#"
   xmlns:svg="http://www.w3.org/2000/svg"
   xmlns="http://www.w3.org/2000/svg"
   xmlns:sodipodi="http://sodipodi.sourceforge.net/DTD/sodipodi-0.dtd"
   xmlns:inkscape="http://www.inkscape.org/namespaces/inkscape"
   width="170"
   height="85"
   viewBox="0 0 170 85.000003"
   id="svg2"
   version="1.1"
   inkscape:version="0.91 r13725"
   sodipodi:docname="logo_inkscape.svg">
  <defs
     id="defs4" />
  <sodipodi:namedview
     id="base"
     pagecolor="#ffffff"
     bordercolor="#666666"
     borderopacity="1.0"
     inkscape:pageopacity="0.0"
     inkscape:pageshadow="2"
     inkscape:zoom="4"
     inkscape:cx="73.54792"
     inkscape:cy="46.53128"
     inkscape:document-units="px"
     inkscape:current-layer="layer1"
     showgrid="false"
     inkscape:window-width="1366"
     inkscape:window-height="745"
     inkscape:window-x="-8"
     inkscape:window-y="-8"
     inkscape:window-maximized="1"
     fit-margin-top="0"
     fit-margin-left="0"
     fit-margin-right="0"
     fit-margin-bottom="0"
     units="px" />
  <metadata
     id="metadata7">
    <rdf:RDF>
      <cc:Work
         rdf:about="">
        <dc:format>image/svg+xml</dc:format>
        <dc:type
           rdf:resource="http://purl.org/dc/dcmitype/StillImage" />
        <dc:title />
      </cc:Work>
    </rdf:RDF>
  </metadata>
  <g
     inkscape:label="Layer 1"
     inkscape:groupmode="layer"
     id="layer1"
     transform="translate(-102.25474,-453.67886)">
    <flowRoot
       xml:space="preserve"
       id="flowRoot4134"
       style="font-style:normal;font-variant:normal;font-weight:100;font-stretch:normal;font-size:41.16484451px;line-height:125%;font-family:Querround;-inkscape-font-specification:'Querround Thin';letter-spacing:0px;word-spacing:0px;fill:#000000;fill-opacity:1;stroke:none;stroke-width:1px;stroke-linecap:butt;stroke-linejoin:miter;stroke-opacity:1"
       transform="matrix(1.0832118,0,0,1.0832118,69.040541,-121.41352)"><flowRegion
         id="flowRegion4136"><rect
           id="rect4138"
           width="309.65488"
           height="218.60944"
           x="32"
           y="407.54227"
           style="font-style:normal;font-variant:normal;font-weight:100;font-stretch:normal;font-family:Querround;-inkscape-font-specification:'Querround Thin'" /></flowRegion><flowPara
         id="flowPara4140">LIBRI</flowPara></flowRoot>    <flowRoot
       style="font-style:normal;font-variant:normal;font-weight:100;font-stretch:normal;font-size:44.59024429px;line-height:125%;font-family:Querround;-inkscape-font-specification:'Querround Thin';letter-spacing:0px;word-spacing:0px;fill:#ff0000;fill-opacity:1;stroke:none;stroke-width:1px;stroke-linecap:butt;stroke-linejoin:miter;stroke-opacity:1"
       id="flowRoot4142"
       xml:space="preserve"
       transform="translate(8.5,3.5)"><flowRegion
         id="flowRegion4144"><rect
           style="font-style:normal;font-variant:normal;font-weight:100;font-stretch:normal;font-family:Querround;-inkscape-font-specification:'Querround Thin';fill:#ff0000;fill-opacity:1"
           y="379.79108"
           x="103.70332"
           height="236.80032"
           width="335.42181"
           id="rect4146" /></flowRegion><flowPara
         id="flowPara4148"> IBRI</flowPara></flowRoot>    <flowRoot
       transform="translate(8.5,3.5)"
       xml:space="preserve"
       id="flowRoot4158"
       style="font-style:normal;font-variant:normal;font-weight:100;font-stretch:normal;font-size:44.59024429px;line-height:125%;font-family:Querround;-inkscape-font-specification:'Querround Thin';letter-spacing:0px;word-spacing:0px;opacity:0.5;fill:#ff0000;fill-opacity:1;stroke:none;stroke-width:1px;stroke-linecap:butt;stroke-linejoin:miter;stroke-opacity:1"><flowRegion
         id="flowRegion4160"><rect
           id="rect4162"
           width="335.42181"
           height="236.80032"
           x="103.70332"
           y="379.79108"
           style="font-style:normal;font-variant:normal;font-weight:100;font-stretch:normal;font-family:Querround;-inkscape-font-specification:'Querround Thin';fill:#ff0000;fill-opacity:1" /></flowRegion><flowPara
         id="flowPara4164"> IBRI</flowPara></flowRoot>    <g
       id="g4204"
       style="font-style:normal;font-variant:normal;font-weight:100;font-stretch:normal;font-size:44.59024429px;line-height:125%;font-family:Querround;-inkscape-font-specification:'Querround Thin';letter-spacing:0px;word-spacing:0px;opacity:0.5;fill:#2200ff;fill-opacity:1;stroke:none;stroke-width:1px;stroke-linecap:butt;stroke-linejoin:miter;stroke-opacity:1"
       transform="translate(49.865747,184.74167)">
      <path
         style="fill:#2200ff;fill-opacity:1"
         inkscape:connector-curvature="0"
         id="path4206"
         d="m 111.95232,420.60521 28.89448,0 q 3.43345,0 5.84132,-2.40787 2.40787,-2.40787 2.40787,-5.84132 l 0,-15.96331 q 0,-3.43345 -2.40787,-5.84132 -0.35672,-0.35672 -1.07017,-1.02558 -1.8282,-1.8282 -3.38885,-3.38886 -1.15935,-1.24852 -2.72001,-1.91738 -1.56066,-0.71344 -3.29968,-0.71344 l -28.40398,0 0,-12.39609 -4.1023,0 0,41.24598 q 0,3.43345 2.40787,5.84132 2.40787,2.40787 5.84132,2.40787 z m -4.1023,-32.99678 28.35939,0 q 1.69443,0 3.07673,1.3823 l 4.50361,4.45902 q 1.20394,1.29312 1.20394,2.94296 l 0,15.96331 q 0,1.73902 -1.20394,2.94295 -1.20393,1.20394 -2.94295,1.20394 l -28.89448,0 q -1.69443,0 -2.89837,-1.20394 -1.20393,-1.20393 -1.20393,-2.94295 l 0,-24.74759 z" />
    </g>
    <g
       transform="translate(91.156613,184.69708)"
       style="font-style:normal;font-variant:normal;font-weight:100;font-stretch:normal;font-size:44.59024429px;line-height:125%;font-family:Querround;-inkscape-font-specification:'Querround Thin';letter-spacing:0px;word-spacing:0px;opacity:0.5;fill:#ff0013;fill-opacity:1;stroke:none;stroke-width:1px;stroke-linecap:butt;stroke-linejoin:miter;stroke-opacity:1"
       id="flowRoot4208">
      <path
         d="m 111.99691,383.50613 q -3.43345,0 -5.84132,2.40787 -2.40787,2.40788 -2.40787,5.84132 l -0.0446,28.89448 4.14689,0 0,-28.89448 q 0,-1.69442 1.20393,-2.89836 1.20394,-1.20394 2.94296,-1.20394 l 37.09908,0 0,-4.14689 -2.05115,0 -35.04793,0 z"
         id="path4221"
         inkscape:connector-curvature="0" />
    </g>
    <g
       transform="translate(51.449384,239.94273)"
       style="font-style:normal;font-variant:normal;font-weight:100;font-stretch:normal;font-size:44.59024429px;line-height:125%;font-family:Querround;-inkscape-font-specification:'Querround Thin';letter-spacing:0px;word-spacing:0px;opacity:0.5;fill:#2200ff;fill-opacity:1;stroke:none;stroke-width:1px;stroke-linecap:butt;stroke-linejoin:miter;stroke-opacity:1"
       id="g4226">
      <path
         d="m 111.95232,420.60521 28.89448,0 q 3.43345,0 5.84132,-2.40787 2.40787,-2.40787 2.40787,-5.84132 l 0,-15.96331 q 0,-3.43345 -2.40787,-5.84132 -0.35672,-0.35672 -1.07017,-1.02558 -1.8282,-1.8282 -3.38885,-3.38886 -1.15935,-1.24852 -2.72001,-1.91738 -1.56066,-0.71344 -3.29968,-0.71344 l -28.40398,0 0,-12.39609 -4.1023,0 0,41.24598 q 0,3.43345 2.40787,5.84132 2.40787,2.40787 5.84132,2.40787 z m -4.1023,-32.99678 28.35939,0 q 1.69443,0 3.07673,1.3823 l 4.50361,4.45902 q 1.20394,1.29312 1.20394,2.94296 l 0,15.96331 q 0,1.73902 -1.20394,2.94295 -1.20393,1.20394 -2.94295,1.20394 l -28.89448,0 q -1.69443,0 -2.89837,-1.20394 -1.20393,-1.20393 -1.20393,-2.94295 l 0,-24.74759 z"
         id="path4228"
         inkscape:connector-curvature="0"
         style="fill:#2200ff;fill-opacity:1" />
    </g>
    <g
       id="g4230"
       style="font-style:normal;font-variant:normal;font-weight:100;font-stretch:normal;font-size:44.59024429px;line-height:125%;font-family:Querround;-inkscape-font-specification:'Querround Thin';letter-spacing:0px;word-spacing:0px;opacity:1;fill:#ff0013;fill-opacity:1;stroke:none;stroke-width:1px;stroke-linecap:butt;stroke-linejoin:miter;stroke-opacity:1"
       transform="translate(92.74025,239.89814)">
      <path
         id="path4232"
         d="m 111.99691,383.50613 c -2.28897,0 -4.23607,0.80262 -5.84132,2.40787 -1.60525,1.60525 -2.40787,3.55236 -2.40787,5.84132 l -0.0446,20.89448 4.14689,0 0,-20.89448 c 0,-1.12961 0.40131,-2.09573 1.20393,-2.89836 0.80263,-0.80263 1.78361,-1.20394 2.94296,-1.20394 l 37.09908,0 0,-4.14689 -2.05115,0 -35.04793,0 z"
         style="opacity:0.5"
         inkscape:connector-curvature="0"
         sodipodi:nodetypes="cscccsssccccc" />
    </g>
    <g
       transform="matrix(1.1763363,0,0,1.1758631,-19.735018,-122.50389)"
       style="font-style:normal;font-variant:normal;font-weight:100;font-stretch:normal;font-size:44.59024429px;line-height:125%;font-family:Querround;-inkscape-font-specification:'Querround Thin';letter-spacing:0px;word-spacing:0px;opacity:0.5;fill:#ff000e;fill-opacity:1;stroke:none;stroke-width:1px;stroke-linecap:butt;stroke-linejoin:miter;stroke-opacity:1"
       id="flowRoot4166">
      <path
         d="m 103.74772,542.65061 q 0,3.43345 2.40787,5.84132 2.40787,2.40787 5.84132,2.40787 l 37.09908,0 0,-4.14689 -37.09908,0 q -1.69443,0 -2.94296,-1.15935 -1.20393,-1.20393 -1.20393,-2.94295 l 0,-28.89448 -4.14689,0 0.0446,28.89448 z"
         style="fill:#ff000e;fill-opacity:1"
         id="path4183"
         inkscape:connector-curvature="0" />
    </g>
    <g
       transform="matrix(1.1763363,0,0,1.1758631,28.77066,30.652109)"
       style="font-style:normal;font-variant:normal;font-weight:100;font-stretch:normal;font-size:44.59024429px;line-height:125%;font-family:Querround;-inkscape-font-specification:'Querround Thin';letter-spacing:0px;word-spacing:0px;opacity:0.5;fill:#ffec00;fill-opacity:1;stroke:none;stroke-width:1px;stroke-linecap:butt;stroke-linejoin:miter;stroke-opacity:1"
       id="flowRoot4174">
      <path
         d="m 103.70313,420.6498 4.14689,0 0,-37.09908 -4.14689,0 0,37.09908 z m 0,-43.29712 4.14689,0 0,-6.19805 -4.14689,0 0,6.19805 z"
         style=""
         id="path4196" />
    </g>
    <g
       id="g4194"
       transform="matrix(1.1763363,0,0,1.1758631,-20.118665,-81.346577)">
      <g
         id="flowRoot4185"
         style="font-style:normal;font-variant:normal;font-weight:100;font-stretch:normal;font-size:44.59024429px;line-height:125%;font-family:Querround;-inkscape-font-specification:'Querround Thin';letter-spacing:0px;word-spacing:0px;opacity:0.5;fill:#2200ff;fill-opacity:1;stroke:none;stroke-width:1px;stroke-linecap:butt;stroke-linejoin:miter;stroke-opacity:1"
         transform="translate(49.865747,95.292659)">
        <path
           sodipodi:nodetypes="sssssscccscccssscsccsssssssc"
           style="fill:#2200ff;fill-opacity:1"
           inkscape:connector-curvature="0"
           id="path4202"
           d="m 111.95232,420.60521 28.89448,0 c 2.28897,0 4.23607,-0.80262 5.84132,-2.40787 1.60525,-1.60525 2.40787,-3.55235 2.40787,-5.84132 l 0,-15.96281 c 0,-2.28897 -0.80262,-4.23657 -2.40787,-5.84182 -0.23781,-0.23781 -0.59454,-0.57967 -1.07017,-1.02558 l -3.38885,-3.38886 c -0.7729,-0.83235 -1.67957,-1.47147 -2.72001,-1.91738 -1.04044,-0.47563 -2.14033,-0.71344 -3.29968,-0.71344 l -28.40398,0 0,-12.39609 -4.1023,0 0,41.24598 c 0,2.28897 0.80262,4.23607 2.40787,5.84132 1.60525,1.60525 3.55235,2.40787 5.84132,2.40787 z m -4.1023,-32.99678 28.35939,0 c 1.12962,0 2.1552,0.46077 3.07673,1.3823 l 4.50361,4.45902 c 0.80263,0.86208 1.20394,1.84307 1.20394,2.94296 l 0,15.96331 c 0,1.15935 -0.40131,2.14033 -1.20394,2.94295 -0.80262,0.80263 -1.7836,1.20394 -2.94295,1.20394 l -28.89448,0 c -1.12962,0 -2.09574,-0.40131 -2.89837,-1.20394 -0.80262,-0.80262 -1.20393,-1.7836 -1.20393,-2.94295 z" />
      </g>
      <g
         id="flowRoot4193"
         style="font-style:normal;font-variant:normal;font-weight:100;font-stretch:normal;font-size:44.59024429px;line-height:125%;font-family:Querround;-inkscape-font-specification:'Querround Thin';letter-spacing:0px;word-spacing:0px;opacity:0.5;fill:#ff0013;fill-opacity:1;stroke:none;stroke-width:1px;stroke-linecap:butt;stroke-linejoin:miter;stroke-opacity:1"
         transform="translate(91.156613,95.248066)">
        <path
           sodipodi:nodetypes="cscccsssccccc"
           inkscape:connector-curvature="0"
           id="path4167"
           d="m 111.99691,383.50613 c -2.28897,0 -4.23607,0.80262 -5.84132,2.40787 -1.60525,1.60525 -2.40787,3.55236 -2.40787,5.84132 l -0.0429,27.8122 c 2.00026,-1.17048 4.13524,-3.76327 4.10031,-7.13281 l 0,-20.67939 c 0,-1.12961 0.44591,-2.09573 1.24853,-2.89836 0.80263,-0.80263 1.78361,-1.20394 2.94296,-1.20394 l 37.09908,0 0,-4.14689 -2.05115,0 -35.04793,0 z" />
      </g>
    </g>
    <g
       transform="matrix(1.1763363,0,0,1.1758631,140.50858,30.652109)"
       style="font-style:normal;font-variant:normal;font-weight:100;font-stretch:normal;font-size:44.59024429px;line-height:125%;font-family:Querround;-inkscape-font-specification:'Querround Thin';letter-spacing:0px;word-spacing:0px;opacity:0.5;fill:#ffec00;fill-opacity:1;stroke:none;stroke-width:1px;stroke-linecap:butt;stroke-linejoin:miter;stroke-opacity:1"
       id="flowRoot4177">
      <path
         d="m 107.85013,420.6498 4.14689,0 0,-37.09908 -4.14689,0 0,37.09908 z m 0,-43.29712 4.14689,0 0,-6.19805 -4.14689,0 0,6.19805 z"
         id="path4204"
         inkscape:connector-curvature="0" />
    </g>
    <rect
       ry="0"
       rx="0"
       y="453.67886"
       x="-119.06969"
       height="85"
       width="170"
       id="rect4236"
       style="opacity:1;fill:#000000;fill-opacity:1;fill-rule:evenodd;stroke:none;stroke-width:0.79522163;stroke-linecap:round;stroke-linejoin:round;stroke-miterlimit:4;stroke-dasharray:none;stroke-dashoffset:0;stroke-opacity:1" />
    <g
       transform="matrix(1.1763363,0,0,1.1758631,-241.05944,-81.346577)"
       id="g4238">
      <g
         transform="translate(0,-35.001786)"
         style="font-style:normal;font-variant:normal;font-weight:100;font-stretch:normal;font-size:44.59024429px;line-height:125%;font-family:Querround;-inkscape-font-specification:'Querround Thin';letter-spacing:0px;word-spacing:0px;opacity:0.5;fill:#ff000e;fill-opacity:1;stroke:none;stroke-width:1px;stroke-linecap:butt;stroke-linejoin:miter;stroke-opacity:1"
         id="g4240">
        <path
           d="m 103.74772,542.65061 q 0,3.43345 2.40787,5.84132 2.40787,2.40787 5.84132,2.40787 l 37.09908,0 0,-4.14689 -37.09908,0 q -1.69443,0 -2.94296,-1.15935 -1.20393,-1.20393 -1.20393,-2.94295 l 0,-28.89448 -4.14689,0 0.0446,28.89448 z"
           style="fill:#ff000e;fill-opacity:1"
           id="path4242"
           inkscape:connector-curvature="0" />
      </g>
      <flowRoot
         style="font-style:normal;font-variant:normal;font-weight:100;font-stretch:normal;font-size:44.59024429px;line-height:125%;font-family:Querround;-inkscape-font-specification:'Querround Thin';letter-spacing:0px;word-spacing:0px;opacity:0.5;fill:#ffec00;fill-opacity:1;stroke:none;stroke-width:1px;stroke-linecap:butt;stroke-linejoin:miter;stroke-opacity:1"
         id="flowRoot4244"
         xml:space="preserve"
         transform="translate(41.234533,95.248066)"><flowRegion
           id="flowRegion4246"><rect
             style="font-style:normal;font-variant:normal;font-weight:100;font-stretch:normal;font-family:Querround;-inkscape-font-specification:'Querround Thin';fill:#ffec00;fill-opacity:1"
             y="379.79108"
             x="103.70332"
             height="236.80032"
             width="335.42181"
             id="rect4248" /></flowRegion><flowPara
           id="flowPara4250">I</flowPara></flowRoot>      <g
         id="g4252"
         transform="translate(-0.326137,0)">
        <g
           id="g4254"
           style="font-style:normal;font-variant:normal;font-weight:100;font-stretch:normal;font-size:44.59024429px;line-height:125%;font-family:Querround;-inkscape-font-specification:'Querround Thin';letter-spacing:0px;word-spacing:0px;opacity:0.5;fill:#2200ff;fill-opacity:1;stroke:none;stroke-width:1px;stroke-linecap:butt;stroke-linejoin:miter;stroke-opacity:1"
           transform="translate(49.865747,95.292659)">
          <path
             sodipodi:nodetypes="sssssscccscccssscsccsssssssc"
             style="fill:#2200ff;fill-opacity:1"
             inkscape:connector-curvature="0"
             id="path4256"
             d="m 111.95232,420.60521 28.89448,0 c 2.28897,0 4.23607,-0.80262 5.84132,-2.40787 1.60525,-1.60525 2.40787,-3.55235 2.40787,-5.84132 l 0,-15.96281 c 0,-2.28897 -0.80262,-4.23657 -2.40787,-5.84182 -0.23781,-0.23781 -0.59454,-0.57967 -1.07017,-1.02558 l -3.38885,-3.38886 c -0.7729,-0.83235 -1.67957,-1.47147 -2.72001,-1.91738 -1.04044,-0.47563 -2.14033,-0.71344 -3.29968,-0.71344 l -28.40398,0 0,-12.39609 -4.1023,0 0,41.24598 c 0,2.28897 0.80262,4.23607 2.40787,5.84132 1.60525,1.60525 3.55235,2.40787 5.84132,2.40787 z m -4.1023,-32.99678 28.35939,0 c 1.12962,0 2.1552,0.46077 3.07673,1.3823 l 4.50361,4.45902 c 0.80263,0.86208 1.20394,1.84307 1.20394,2.94296 l 0,15.96331 c 0,1.15935 -0.40131,2.14033 -1.20394,2.94295 -0.80262,0.80263 -1.7836,1.20394 -2.94295,1.20394 l -28.89448,0 c -1.12962,0 -2.09574,-0.40131 -2.89837,-1.20394 -0.80262,-0.80262 -1.20393,-1.7836 -1.20393,-2.94295 z" />
        </g>
        <g
           id="g4258"
           style="font-style:normal;font-variant:normal;font-weight:100;font-stretch:normal;font-size:44.59024429px;line-height:125%;font-family:Querround;-inkscape-font-specification:'Querround Thin';letter-spacing:0px;word-spacing:0px;opacity:0.5;fill:#ff0013;fill-opacity:1;stroke:none;stroke-width:1px;stroke-linecap:butt;stroke-linejoin:miter;stroke-opacity:1"
           transform="translate(91.156613,95.248066)">
          <path
             sodipodi:nodetypes="cscccsssccccc"
             inkscape:connector-curvature="0"
             id="path4260"
             d="m 111.99691,383.50613 c -2.28897,0 -4.23607,0.80262 -5.84132,2.40787 -1.60525,1.60525 -2.40787,3.55236 -2.40787,5.84132 l -0.0429,27.8122 c 2.00026,-1.17048 4.13524,-3.76327 4.10031,-7.13281 l 0,-20.67939 c 0,-1.12961 0.44591,-2.09573 1.24853,-2.89836 0.80263,-0.80263 1.78361,-1.20394 2.94296,-1.20394 l 37.09908,0 0,-4.14689 -2.05115,0 -35.04793,0 z" />
        </g>
      </g>
      <g
         transform="translate(136.22261,95.248066)"
         style="font-style:normal;font-variant:normal;font-weight:100;font-stretch:normal;font-size:44.59024429px;line-height:125%;font-family:Querround;-inkscape-font-specification:'Querround Thin';letter-spacing:0px;word-spacing:0px;opacity:0.5;fill:#ffec00;fill-opacity:1;stroke:none;stroke-width:1px;stroke-linecap:butt;stroke-linejoin:miter;stroke-opacity:1"
         id="g4262">
        <path
           d="m 107.85013,420.6498 4.14689,0 0,-37.09908 -4.14689,0 0,37.09908 z m 0,-43.29712 4.14689,0 0,-6.19805 -4.14689,0 0,6.19805 z"
           id="path4264"
           inkscape:connector-curvature="0" />
      </g>
    </g>
  </g>
</svg>
