<?xml version="1.0" encoding="UTF-8" standalone="no"?>
<!-- Created with Inkscape (http://www.inkscape.org/) -->

<svg
   xmlns:dc="http://purl.org/dc/elements/1.1/"
   xmlns:cc="http://creativecommons.org/ns#"
   xmlns:rdf="http://www.w3.org/1999/02/22-rdf-syntax-ns#"
   xmlns:svg="http://www.w3.org/2000/svg"
   xmlns="http://www.w3.org/2000/svg"
   xmlns:sodipodi="http://sodipodi.sourceforge.net/DTD/sodipodi-0.dtd"
   xmlns:inkscape="http://www.inkscape.org/namespaces/inkscape"
   width="300"
   height="150"
   viewBox="0 0 300 150.00001"
   id="svg2"
   version="1.1"
   inkscape:version="0.91 r13725"
   sodipodi:docname="logo_inkscape_reduced.svg">
  <defs
     id="defs4" />
  <sodipodi:namedview
     id="base"
     pagecolor="#ffffff"
     bordercolor="#666666"
     borderopacity="1.0"
     inkscape:pageopacity="0.0"
     inkscape:pageshadow="2"
     inkscape:zoom="2"
     inkscape:cx="124.69339"
     inkscape:cy="108.12091"
     inkscape:document-units="px"
     inkscape:current-layer="layer1"
     showgrid="false"
     inkscape:window-width="1366"
     inkscape:window-height="745"
     inkscape:window-x="-8"
     inkscape:window-y="-8"
     inkscape:window-maximized="1"
     fit-margin-top="0"
     fit-margin-left="0"
     fit-margin-right="0"
     fit-margin-bottom="0"
     units="px" />
  <metadata
     id="metadata7">
    <rdf:RDF>
      <cc:Work
         rdf:about="">
        <dc:format>image/svg+xml</dc:format>
        <dc:type
           rdf:resource="http://purl.org/dc/dcmitype/StillImage" />
        <dc:title></dc:title>
      </cc:Work>
    </rdf:RDF>
  </metadata>
  <g
     inkscape:label="Layer 1"
     inkscape:groupmode="layer"
     id="layer1"
     transform="translate(328.37329,-389.38599)">
    <g
       id="g4240"
       style="font-style:normal;font-variant:normal;font-weight:100;font-stretch:normal;font-size:44.59024429px;line-height:125%;font-family:Querround;-inkscape-font-specification:'Querround Thin';letter-spacing:0px;word-spacing:0px;opacity:0.5;fill:#ff000e;fill-opacity:1;stroke:none;stroke-width:1px;stroke-linecap:butt;stroke-linejoin:miter;stroke-opacity:1"
       transform="matrix(2.0758875,0,0,2.0750524,-543.64932,-627.40706)">
      <path
         inkscape:connector-curvature="0"
         id="path4242"
         style="fill:#ff000e;fill-opacity:1"
         d="m 103.74772,542.65061 q 0,3.43345 2.40787,5.84132 2.40787,2.40787 5.84132,2.40787 l 37.09908,0 0,-4.14689 -37.09908,0 q -1.69443,0 -2.94296,-1.15935 -1.20393,-1.20393 -1.20393,-2.94295 l 0,-28.89448 -4.14689,0 0.0446,28.89448 z" />
    </g>
    <g
       transform="matrix(2.0758875,0,0,2.0750524,-458.05107,-357.13179)"
       style="font-style:normal;font-variant:normal;font-weight:100;font-stretch:normal;font-size:44.59024429px;line-height:125%;font-family:Querround;-inkscape-font-specification:'Querround Thin';letter-spacing:0px;word-spacing:0px;opacity:0.5;fill:#ffec00;fill-opacity:1;stroke:none;stroke-width:1px;stroke-linecap:butt;stroke-linejoin:miter;stroke-opacity:1"
       id="flowRoot4244">
      <path
         d="m 103.70313,420.6498 4.14689,0 0,-37.09908 -4.14689,0 0,37.09908 z m 0,-43.29712 4.14689,0 0,-6.19805 -4.14689,0 0,6.19805 z"
         style=""
         id="path4244" />
    </g>
    <g
       id="g4254"
       style="font-style:normal;font-variant:normal;font-weight:100;font-stretch:normal;font-size:44.59024429px;line-height:125%;font-family:Querround;-inkscape-font-specification:'Querround Thin';letter-spacing:0px;word-spacing:0px;opacity:0.5;fill:#2200ff;fill-opacity:1;stroke:none;stroke-width:1px;stroke-linecap:butt;stroke-linejoin:miter;stroke-opacity:1"
       transform="matrix(2.0758875,0,0,2.0750524,-440.81066,-357.03926)">
      <path
         sodipodi:nodetypes="sssssscccscccssscsccsssssssc"
         style="fill:#2200ff;fill-opacity:1"
         inkscape:connector-curvature="0"
         id="path4256"
         d="m 111.95232,420.60521 28.89448,0 c 2.28897,0 4.23607,-0.80262 5.84132,-2.40787 1.60525,-1.60525 2.40787,-3.55235 2.40787,-5.84132 l 0,-15.96281 c 0,-2.28897 -0.80262,-4.23657 -2.40787,-5.84182 -0.23781,-0.23781 -0.59454,-0.57967 -1.07017,-1.02558 l -3.38885,-3.38886 c -0.7729,-0.83235 -1.67957,-1.47147 -2.72001,-1.91738 -1.04044,-0.47563 -2.14033,-0.71344 -3.29968,-0.71344 l -28.40398,0 0,-12.39609 -4.1023,0 0,41.24598 c 0,2.28897 0.80262,4.23607 2.40787,5.84132 1.60525,1.60525 3.55235,2.40787 5.84132,2.40787 z m -4.1023,-32.99678 28.35939,0 c 1.12962,0 2.1552,0.46077 3.07673,1.3823 l 4.50361,4.45902 c 0.80263,0.86208 1.20394,1.84307 1.20394,2.94296 l 0,15.96331 c 0,1.15935 -0.40131,2.14033 -1.20394,2.94295 -0.80262,0.80263 -1.7836,1.20394 -2.94295,1.20394 l -28.89448,0 c -1.12962,0 -2.09574,-0.40131 -2.89837,-1.20394 -0.80262,-0.80262 -1.20393,-1.7836 -1.20393,-2.94295 z" />
    </g>
    <g
       id="g4258"
       style="font-style:normal;font-variant:normal;font-weight:100;font-stretch:normal;font-size:44.59024429px;line-height:125%;font-family:Querround;-inkscape-font-specification:'Querround Thin';letter-spacing:0px;word-spacing:0px;opacity:0.5;fill:#ff0013;fill-opacity:1;stroke:none;stroke-width:1px;stroke-linecap:butt;stroke-linejoin:miter;stroke-opacity:1"
       transform="matrix(2.0758875,0,0,2.0750524,-355.09547,-357.13179)">
      <path
         sodipodi:nodetypes="cscccsssccccc"
         inkscape:connector-curvature="0"
         id="path4260"
         d="m 111.99691,383.50613 c -2.28897,0 -4.23607,0.80262 -5.84132,2.40787 -1.60525,1.60525 -2.40787,3.55236 -2.40787,5.84132 l -0.0429,27.8122 c 2.00026,-1.17048 4.13524,-3.76327 4.10031,-7.13281 l 0,-20.67939 c 0,-1.12961 0.44591,-2.09573 1.24853,-2.89836 0.80263,-0.80263 1.78361,-1.20394 2.94296,-1.20394 l 37.09908,0 0,-4.14689 -2.05115,0 -35.04793,0 z" />
    </g>
    <g
       id="g4262"
       style="font-style:normal;font-variant:normal;font-weight:100;font-stretch:normal;font-size:44.59024429px;line-height:125%;font-family:Querround;-inkscape-font-specification:'Querround Thin';letter-spacing:0px;word-spacing:0px;opacity:0.5;fill:#ffec00;fill-opacity:1;stroke:none;stroke-width:1px;stroke-linecap:butt;stroke-linejoin:miter;stroke-opacity:1"
       transform="matrix(2.0758875,0,0,2.0750524,-260.86651,-357.13179)">
      <path
         inkscape:connector-curvature="0"
         id="path4264"
         d="m 107.85013,420.6498 4.14689,0 0,-37.09908 -4.14689,0 0,37.09908 z m 0,-43.29712 4.14689,0 0,-6.19805 -4.14689,0 0,6.19805 z" />
    </g>
  </g>
</svg>
